<?xml version="1.0" encoding="utf-8"?>
<!-- Generator: Adobe Illustrator 15.0.0, SVG Export Plug-In . SVG Version: 6.00 Build 0)  -->
<!DOCTYPE svg PUBLIC "-//W3C//DTD SVG 1.1//EN" "http://www.w3.org/Graphics/SVG/1.1/DTD/svg11.dtd">
<svg version="1.1" id="Calque_1" xmlns="http://www.w3.org/2000/svg" xmlns:xlink="http://www.w3.org/1999/xlink" x="0px" y="0px"
	 width="24px" height="24px" viewBox="0 0 24 24" enable-background="new 0 0 24 24" xml:space="preserve">
<g>
	<path d="M12,22.562C6.176,22.562,1.438,17.824,1.438,12S6.176,1.438,12,1.438S22.562,6.176,22.562,12S17.824,22.562,12,22.562z
		 M12,2.438c-5.272,0-9.562,4.29-9.562,9.562c0,5.271,4.29,9.562,9.562,9.562c5.271,0,9.562-4.291,9.562-9.562
		C21.562,6.728,17.271,2.438,12,2.438z"/>
</g>
<g>
	<rect x="11.5" y="4.812" width="1" height="14.375"/>
</g>
<g>
	<rect x="11.5" y="4.812" width="1" height="14.375"/>
</g>
<g>
	<rect x="4.938" y="11.5" width="14.375" height="1"/>
</g>
</svg>
