<?xml version="1.0" encoding="utf-8"?>
<!-- Generator: Adobe Illustrator 15.0.0, SVG Export Plug-In . SVG Version: 6.00 Build 0)  -->
<!DOCTYPE svg PUBLIC "-//W3C//DTD SVG 1.1//EN" "http://www.w3.org/Graphics/SVG/1.1/DTD/svg11.dtd">
<svg version="1.1" id="Calque_1" xmlns="http://www.w3.org/2000/svg" xmlns:xlink="http://www.w3.org/1999/xlink" x="0px" y="0px"
	 width="24px" height="24px" viewBox="0 0 24 24" enable-background="new 0 0 24 24" xml:space="preserve">
<g>
	<path d="M12.312,21.625C6.626,21.625,2,16.999,2,11.312S6.626,1,12.312,1s10.312,4.626,10.312,10.312S17.999,21.625,12.312,21.625z
		 M12.312,2C7.178,2,3,6.178,3,11.312s4.178,9.312,9.312,9.312s9.312-4.178,9.312-9.312S17.447,2,12.312,2z"/>
</g>
<g>
	<path d="M15.813,7.173l-2.981,3.924v0.062l4.741-0.628v2.135l-4.741-0.596v0.093l3.014,3.77l-1.979,1.129l-1.915-4.396H11.89
		l-2.009,4.428l-1.79-1.131l2.981-3.831v-0.095l-4.646,0.628v-2.135l4.616,0.598v-0.063L8.091,7.203l1.915-1.098l1.946,4.394h0.062
		l1.915-4.426L15.813,7.173z"/>
</g>
</svg>
